<?xml version="1.0" encoding="UTF-8"?>
<svg version="1.1" xmlns="http://www.w3.org/2000/svg" width="268" height="268">
<path d="M0 0 C1.34384766 1.11375 1.34384766 1.11375 2.71484375 2.25 C20.24560383 17.37669591 33.74507275 39.3809653 39 62 C39 63.32 39 64.64 39 66 C40.670625 65.9071875 40.670625 65.9071875 42.375 65.8125 C44.169375 65.9053125 44.169375 65.9053125 46 66 C48.17279421 69.25919132 48.25513322 70.20174329 48.2746582 73.97460938 C48.28419022 74.98575806 48.29372223 75.99690674 48.30354309 77.03869629 C48.30217598 78.67469788 48.30217598 78.67469788 48.30078125 80.34375 C48.30506638 81.46438843 48.3093515 82.58502686 48.31376648 83.73962402 C48.31951215 86.11010054 48.32000831 88.4805947 48.31567383 90.85107422 C48.31251248 94.48565595 48.33597586 98.11942512 48.36132812 101.75390625 C48.36360087 104.05468647 48.36430473 106.35546889 48.36328125 108.65625 C48.372491 109.74691772 48.38170074 110.83758545 48.39118958 111.96130371 C48.38496078 112.97245239 48.37873199 113.98360107 48.37231445 115.02539062 C48.37294388 115.9156897 48.3735733 116.80598877 48.3742218 117.7232666 C48 120 48 120 46.6759491 121.79919434 C44.17481146 123.59124174 41.98492784 123.19899519 39 123 C38.76667969 123.83917969 38.53335938 124.67835938 38.29296875 125.54296875 C33.34367469 141.85989933 25.65058058 157.44676183 14 170 C13.29488281 170.83273438 12.58976563 171.66546875 11.86328125 172.5234375 C1.96255749 184.0772444 -11.1412659 195.56455699 -26 200 C-25.01 202.475 -25.01 202.475 -24 205 C-59.64 205 -95.28 205 -132 205 C-132 203.35 -132 201.7 -132 200 C-132.90621094 199.50371094 -133.81242187 199.00742187 -134.74609375 198.49609375 C-141.96209819 194.49393168 -148.71357664 190.39164047 -155 185 C-156.21429688 183.96746094 -156.21429688 183.96746094 -157.453125 182.9140625 C-176.13271058 166.58374996 -187.82281598 146.61525065 -195 123 C-196.0725 123.061875 -197.145 123.12375 -198.25 123.1875 C-202.23570461 122.98821477 -203.26104761 122.74232471 -206 120 C-206.50120544 117.7232666 -206.50120544 117.7232666 -206.50170898 115.02539062 C-206.51108994 114.01424194 -206.52047089 113.00309326 -206.53013611 111.96130371 C-206.51890213 110.87063599 -206.50766815 109.77996826 -206.49609375 108.65625 C-206.49754898 107.53561157 -206.49900421 106.41497314 -206.50050354 105.26037598 C-206.49884274 102.88986615 -206.4872614 100.51934574 -206.46655273 98.14892578 C-206.43761293 94.51418396 -206.44593786 90.88090102 -206.45898438 87.24609375 C-206.45274682 84.94530539 -206.44435574 82.64452165 -206.43359375 80.34375 C-206.43652939 79.25308228 -206.43946503 78.16241455 -206.44248962 77.03869629 C-206.42980545 76.02754761 -206.41712128 75.01639893 -206.40405273 73.97460938 C-206.39864975 73.0843103 -206.39324677 72.19401123 -206.38768005 71.2767334 C-205.91617698 68.5077315 -205.26014261 67.63300274 -203 66 C-199.3125 65.3125 -199.3125 65.3125 -196 65 C-195.83508057 64.45287354 -195.67016113 63.90574707 -195.50024414 63.34204102 C-189.99998019 45.35773652 -183.13812392 29.55768351 -171 15 C-170.20335937 14.02804688 -169.40671875 13.05609375 -168.5859375 12.0546875 C-152.55021798 -6.50023871 -131.47440226 -18.53470675 -108 -25 C-106.77667969 -25.3403125 -105.55335937 -25.680625 -104.29296875 -26.03125 C-67.2907372 -34.54294544 -28.75012714 -23.98967584 0 0 Z " fill="#DBF0F7" transform="translate(215,63)"/>
<path d="M0 0 C0.99644531 0.33 1.99289063 0.66 3.01953125 1 C10.55755484 3.66770567 16.79766722 6.95235684 23 12 C23.62390625 12.49886719 24.2478125 12.99773437 24.890625 13.51171875 C32.7588018 20.54700296 39.48187851 32.54182974 41 43 C41.21093167 47.67973979 41.18207571 52.31997991 41 57 C41.59039062 57.28101563 42.18078125 57.56203125 42.7890625 57.8515625 C49.61666137 61.39805379 53.68034944 66.49981482 56.88671875 73.45703125 C59.75454715 82.58376936 59.45724586 92.02121321 55.3125 100.6875 C52.2158415 105.98880531 49.39267372 110.68011245 43.90551758 113.70703125 C40.70907704 115.75375776 40.70907704 115.75375776 40.15112305 119.29296875 C40.10511963 120.57816406 40.05911621 121.86335938 40.01171875 123.1875 C39.97818802 123.88584961 39.94465729 124.58419922 39.91011047 125.30371094 C39.80875029 127.53565448 39.74713808 129.76659022 39.6875 132 C39.62965919 133.47016104 39.56913698 134.94021918 39.50585938 136.41015625 C39.41376323 138.57498412 39.32458736 140.73959863 39.24784851 142.9050293 C39.06348795 148.07654673 38.67492083 153.20686347 38.21166992 158.359375 C37.9004256 162.24221078 37.8161255 166.1062182 37.8125 170 C37.80025391 170.72316406 37.78800781 171.44632813 37.77539062 172.19140625 C37.76409456 176.28058238 38.11868754 178.23737507 40 182 C4.36 182 -31.28 182 -68 182 C-67.67 180.35 -67.34 178.7 -67 177 C-66.91089641 175.13571761 -66.86939459 173.26875298 -66.8671875 171.40234375 C-66.86589844 170.35369141 -66.86460938 169.30503906 -66.86328125 168.22460938 C-66.86714844 167.13986328 -66.87101562 166.05511719 -66.875 164.9375 C-66.87113281 163.84888672 -66.86726563 162.76027344 -66.86328125 161.63867188 C-66.86457031 160.59130859 -66.86585937 159.54394531 -66.8671875 158.46484375 C-66.86831543 157.512146 -66.86944336 156.55944824 -66.87060547 155.57788086 C-66.98892453 153.22065252 -67.36278012 151.26053371 -68 149 C-69.42857556 137.73012613 -69.10448436 126.33414232 -69 115 C-70.11181641 114.63261719 -70.11181641 114.63261719 -71.24609375 114.2578125 C-77.8346281 111.24858121 -82.26630677 104.30658489 -85.30859375 97.921875 C-88.04029593 90.32866895 -88.51373746 80.67618895 -85.375 73.1875 C-82.09030047 66.8734486 -77.98379106 60.98919404 -72 57 C-71.34 57 -70.68 57 -70 57 C-70.05220703 56.01773438 -70.05220703 56.01773438 -70.10546875 55.015625 C-70.534378 40.55525615 -66.10231417 28.55996283 -56.5625 17.6875 C-47.56097964 8.1900695 -38.78920676 2.26908912 -26 -1 C-25.38253906 -1.18691406 -24.76507813 -1.37382813 -24.12890625 -1.56640625 C-16.32579593 -3.15566358 -7.50513733 -2.66356075 0 0 Z " fill="#ED7250" transform="translate(151,86)"/>
<path d="M0 0 C1.34384766 1.11375 1.34384766 1.11375 2.71484375 2.25 C20.24560383 17.37669591 33.74507275 39.3809653 39 62 C39 63.32 39 64.64 39 66 C40.670625 65.9071875 40.670625 65.9071875 42.375 65.8125 C44.169375 65.9053125 44.169375 65.9053125 46 66 C48.17279421 69.25919132 48.25513322 70.20174329 48.2746582 73.97460938 C48.28419022 74.98575806 48.29372223 75.99690674 48.30354309 77.03869629 C48.30217598 78.67469788 48.30217598 78.67469788 48.30078125 80.34375 C48.30506638 81.46438843 48.3093515 82.58502686 48.31376648 83.73962402 C48.31951215 86.11010054 48.32000831 88.4805947 48.31567383 90.85107422 C48.31251248 94.48565595 48.33597586 98.11942512 48.36132812 101.75390625 C48.36360087 104.05468647 48.36430473 106.35546889 48.36328125 108.65625 C48.372491 109.74691772 48.38170074 110.83758545 48.39118958 111.96130371 C48.38496078 112.97245239 48.37873199 113.98360107 48.37231445 115.02539062 C48.37294388 115.9156897 48.3735733 116.80598877 48.3742218 117.7232666 C48 120 48 120 46.6759491 121.79919434 C44.17481146 123.59124174 41.98492784 123.19899519 39 123 C38.76667969 123.83917969 38.53335938 124.67835938 38.29296875 125.54296875 C33.34367469 141.85989933 25.65058058 157.44676183 14 170 C13.29488281 170.83273438 12.58976563 171.66546875 11.86328125 172.5234375 C1.09038915 185.0950351 -11.83262065 194.49969456 -27 201 C-27 195.39 -27 189.78 -27 184 C-26.67 184 -26.34 184 -26 184 C-26 187.3 -26 190.6 -26 194 C-17.8111224 189.17395301 -10.27074588 184.15120196 -3 178 C-2.33742187 177.48308594 -1.67484375 176.96617187 -0.9921875 176.43359375 C17.61382062 161.40566411 31.43066642 134.63880516 34.5625 111.07421875 C36.34604179 93.45443397 36.61658055 74.95303509 31 58 C30.68651611 57.042146 30.68651611 57.042146 30.36669922 56.06494141 C25.35676297 41.30533146 17.54772725 27.47890703 7 16 C6.55285645 15.51047852 6.10571289 15.02095703 5.64501953 14.51660156 C-5.70653356 2.22590522 -18.80909955 -6.19908344 -34 -13 C-34.64839844 -13.29036133 -35.29679688 -13.58072266 -35.96484375 -13.87988281 C-64.22699627 -26.20547951 -95.71038747 -24.10370358 -124 -13 C-151.33984532 -1.04275305 -173.51416685 21.65752886 -184.6875 49.2734375 C-192.90585961 72.60770855 -195.42433811 97.83368139 -189 122 C-188.80664062 122.86238281 -188.61328125 123.72476563 -188.4140625 124.61328125 C-184.00795375 142.09466076 -172.36474843 159.26647837 -160 172 C-159.32710937 172.74636719 -158.65421875 173.49273437 -157.9609375 174.26171875 C-150.15535603 182.63737078 -140.31135069 189.089833 -130 194 C-130 195.98 -130 197.96 -130 200 C-151.64121469 194.3049435 -170.99521366 172.25735517 -181.95214844 153.81005859 C-187.6733509 143.92725452 -191.69533501 133.87341385 -195 123 C-196.0725 123.061875 -197.145 123.12375 -198.25 123.1875 C-202.23570461 122.98821477 -203.26104761 122.74232471 -206 120 C-206.50120544 117.7232666 -206.50120544 117.7232666 -206.50170898 115.02539062 C-206.51108994 114.01424194 -206.52047089 113.00309326 -206.53013611 111.96130371 C-206.51890213 110.87063599 -206.50766815 109.77996826 -206.49609375 108.65625 C-206.49754898 107.53561157 -206.49900421 106.41497314 -206.50050354 105.26037598 C-206.49884274 102.88986615 -206.4872614 100.51934574 -206.46655273 98.14892578 C-206.43761293 94.51418396 -206.44593786 90.88090102 -206.45898438 87.24609375 C-206.45274682 84.94530539 -206.44435574 82.64452165 -206.43359375 80.34375 C-206.43652939 79.25308228 -206.43946503 78.16241455 -206.44248962 77.03869629 C-206.42980545 76.02754761 -206.41712128 75.01639893 -206.40405273 73.97460938 C-206.39864975 73.0843103 -206.39324677 72.19401123 -206.38768005 71.2767334 C-205.91617698 68.5077315 -205.26014261 67.63300274 -203 66 C-199.3125 65.3125 -199.3125 65.3125 -196 65 C-195.83508057 64.45287354 -195.67016113 63.90574707 -195.50024414 63.34204102 C-189.99998019 45.35773652 -183.13812392 29.55768351 -171 15 C-170.20335937 14.02804688 -169.40671875 13.05609375 -168.5859375 12.0546875 C-152.55021798 -6.50023871 -131.47440226 -18.53470675 -108 -25 C-106.77667969 -25.3403125 -105.55335937 -25.680625 -104.29296875 -26.03125 C-67.2907372 -34.54294544 -28.75012714 -23.98967584 0 0 Z " fill="#B8D1EC" transform="translate(215,63)"/>
<path d="M0 0 C5.23241888 3.44710857 8.69779621 7.83119995 10.58203125 13.86328125 C12.10330984 21.64028487 11.61726403 28.73731141 7.69140625 35.671875 C3.68277796 41.18952503 -1.37984836 46.00724813 -8 48 C-16.60878855 48.96166918 -24.55392044 49.17838415 -31.875 43.984375 C-37.4771233 38.75298045 -41.62893299 32.99513289 -42.203125 25.265625 C-42.36066475 15.130568 -40.73647934 9.1518639 -33.7578125 1.69140625 C-23.91411198 -7.78042114 -10.81004238 -6.78900586 0 0 Z " fill="#FDFBFB" transform="translate(113,150)"/>
<path d="M0 0 C7.72586195 4.79003441 13.33139559 10.06521932 16.125 18.9375 C17.27834869 26.9000419 16.14261786 33.76139436 11.42578125 40.2890625 C6.10439 46.70818671 1.78379645 50.38334842 -6.5859375 51.37890625 C-14.0939849 51.8435795 -20.50923987 51.33518649 -26.8203125 46.8515625 C-32.18721163 41.85197966 -36.39868503 35.26310454 -37.2109375 27.88671875 C-37.32274634 18.55068073 -35.9566494 13.05523871 -29.625 6.1875 C-21.45084868 -1.33271921 -10.83976708 -3.98704076 0 0 Z " fill="#FDFBFB" transform="translate(185.875,147.0625)"/>
<path d="M0 0 C0.495 2.475 0.495 2.475 1 5 C-2.19042369 7.57961767 -5.42672567 10.08462199 -8.70605469 12.55004883 C-26.54785053 26.04623466 -39.94168025 44.93934519 -43.5546875 67.45703125 C-44.24487247 73.37044237 -44.22371758 79.30360289 -44.25 85.25 C-44.270625 86.40113281 -44.29125 87.55226563 -44.3125 88.73828125 C-44.39581664 107.21374533 -37.10299542 122.84550687 -27 138 C-26.875 140.6875 -26.875 140.6875 -27 143 C-28.65 143.33 -30.3 143.66 -32 144 C-41.89262533 132.87079651 -47.66457181 119.39500588 -51 105 C-51.22429688 104.14921875 -51.44859375 103.2984375 -51.6796875 102.421875 C-57.06118324 78.97919492 -51.43039451 53.48800197 -39.08984375 33.2421875 C-32.06042982 22.33674159 -14.81817415 -1.39844838 0 0 Z " fill="#FCFEFE" transform="translate(90,72)"/>
<path d="M0 0 C2.18939607 2.18939607 4.36437967 4.38259866 6.5 6.625 C11.59956122 11.46958316 15.92954959 11.41301068 22.7890625 11.3359375 C27.16224073 10.87840304 29.45540344 9.520602 33 7 C33.66 7 34.32 7 35 7 C35.28875 6.360625 35.5775 5.72125 35.875 5.0625 C37 3 37 3 39 2 C38.41107796 9.06706453 36.2200751 14.3709637 31.625 19.8125 C26.99763076 23.66864104 22.97885456 25.63417342 16.9453125 25.3359375 C12.64031683 24.59250451 10.05327528 22.33397701 7.40234375 18.9765625 C3.41992299 13.2426594 -0.65902866 7.24931529 0 0 Z " fill="#0F0E0D" transform="translate(117,229)"/>
<path d="M0 0 C2.19528521 1.02546203 4.14219128 2.10107889 6.12109375 3.5078125 C12.93442515 8.26450592 18.79059015 9.37660851 27 8 C30.58977738 6.68455138 33.74098179 4.9806188 37 3 C38.32736115 2.32152037 39.65885346 1.6508058 41 1 C39.82372246 9.05837894 37.50425028 12.29880707 31 17.3125 C25.72722854 20.12772152 19.77377412 19.81973336 14 19 C8.33391429 16.89979473 4.74670422 13.38776596 2 8 C1.16264009 5.33873547 0.56677854 2.7394296 0 0 Z " fill="#F7F4F3" transform="translate(116,222)"/>
<path d="M0 0 C3.8425303 0.72047443 5.45767292 1.57152696 8 4.5625 C8.94237143 8.56143269 8.61136591 11.54355682 6.5 15.0625 C2.98105682 17.17386591 -0.00106731 17.50487143 -4 16.5625 C-6.99097304 14.02017292 -7.84202557 12.4050303 -8.5625 8.5625 C-7.62098494 3.54108633 -5.02141367 0.94151506 0 0 Z " fill="#0E1111" transform="translate(176,158.4375)"/>
<path d="M0 0 C3.80484394 0.71340824 5.4511805 1.6388541 8 4.5625 C8.6694949 8.65385771 8.38501272 10.80851675 6.5 14.5 C3.47019585 16.99958842 1.75291667 17.30523321 -2.09375 17.046875 C-4 16.5625 -4 16.5625 -6.5 14.4375 C-8.27801176 11.02964413 -8.70960213 9.34704468 -8 5.5625 C-5.53959272 2.23371368 -4.10389613 0.76948052 0 0 Z " fill="#0D1010" transform="translate(97,158.4375)"/>
<path d="M0 0 C3.72975427 1.15283314 5.35163561 1.75988138 7.4375 5.0625 C7.4375 8.99191056 6.99334616 11.2596111 4.75 14.5 C1.66016708 16.58772494 0.0994192 16.7350974 -3.5625 16.0625 C-6.88524404 13.60655875 -8.33868008 12.1368356 -9.1875 8.0625 C-8.06449489 2.67207546 -5.55537361 0.09746269 0 0 Z " fill="#F5A681" transform="translate(114.5625,102.9375)"/>
<path d="M0 0 C3 0.25 3 0.25 5 2.25 C5.25 5.25 5.25 5.25 5 8.25 C3 10.25 3 10.25 0 10.5 C-3 10.25 -3 10.25 -5 8.25 C-5.25 5.25 -5.25 5.25 -5 2.25 C-3 0.25 -3 0.25 0 0 Z " fill="#FCFEFE" transform="translate(100,61.75)"/>
</svg>
