<?xml version="1.0" encoding="UTF-8"?>
<svg version="1.1" xmlns="http://www.w3.org/2000/svg" width="200" height="200">
<path d="M0 0 C66 0 132 0 200 0 C200 66 200 132 200 200 C134 200 68 200 0 200 C0 134 0 68 0 0 Z " fill="#8163EB" transform="translate(0,0)"/>
<path d="M0 0 C14.14643553 -2.78810888 31.96206015 -5.97766347 44.97229004 1.77001953 C59.22071099 12.20794685 70.90597747 26.36908168 82 40 C74.83603635 55.52012061 56.63119119 73.57183137 42 82 C28.80478264 86.82431129 13.50018911 84.50303762 0 82 C4.37029366 76.77051256 8.96911804 71.89710045 13.8046875 67.09765625 C14.8906572 66.01380898 14.8906572 66.01380898 15.99856567 64.9080658 C18.28835265 62.62383078 20.58160993 60.34311688 22.875 58.0625 C24.43773161 56.50478961 26.0002339 54.94684913 27.5625 53.38867188 C31.3723531 49.58978398 35.18505379 45.79377287 39 42 C37.58198235 38.77299866 35.87655269 36.63681327 33.37646484 34.1652832 C32.63584808 33.4280452 31.89523132 32.69080719 31.13217163 31.93122864 C30.33316437 31.145681 29.5341571 30.36013336 28.7109375 29.55078125 C27.89251373 28.73755905 27.07408997 27.92433685 26.23086548 27.08647156 C23.61693979 24.49036107 20.99642449 21.90103666 18.375 19.3125 C15.74732208 16.71238346 13.12109117 14.11084646 10.49771118 11.50639343 C8.86449997 9.88550025 7.22862467 8.26728644 5.5899353 6.65193176 C4.85562286 5.92415024 4.12131042 5.19636871 3.36474609 4.4465332 C2.71347748 3.80351761 2.06220886 3.16050201 1.39120483 2.4980011 C0 1 0 1 0 0 Z " fill="#FDFDFE" transform="translate(91,59)"/>
<path d="M0 0 C14.14643553 -2.78810888 31.96206015 -5.97766347 44.97229004 1.77001953 C59.22071099 12.20794685 70.90597747 26.36908168 82 40 C74.83603635 55.52012061 56.63119119 73.57183137 42 82 C28.80478264 86.82431129 13.50018911 84.50303762 0 82 C4.37029366 76.77051256 8.96911804 71.89710045 13.8046875 67.09765625 C14.8906572 66.01380898 14.8906572 66.01380898 15.99856567 64.9080658 C18.28835265 62.62383078 20.58160993 60.34311688 22.875 58.0625 C24.43773161 56.50478961 26.0002339 54.94684913 27.5625 53.38867188 C31.3723531 49.58978398 35.18505379 45.79377287 39 42 C37.58198235 38.77299866 35.87655269 36.63681327 33.37646484 34.1652832 C32.63584808 33.4280452 31.89523132 32.69080719 31.13217163 31.93122864 C30.33316437 31.145681 29.5341571 30.36013336 28.7109375 29.55078125 C27.89251373 28.73755905 27.07408997 27.92433685 26.23086548 27.08647156 C23.61693979 24.49036107 20.99642449 21.90103666 18.375 19.3125 C15.74732208 16.71238346 13.12109117 14.11084646 10.49771118 11.50639343 C8.86449997 9.88550025 7.22862467 8.26728644 5.5899353 6.65193176 C4.85562286 5.92415024 4.12131042 5.19636871 3.36474609 4.4465332 C2.71347748 3.80351761 2.06220886 3.16050201 1.39120483 2.4980011 C0 1 0 1 0 0 Z " fill="#FDFDFE" transform="translate(27,59)"/>
</svg>
